<svg width="20" height="20" viewBox="0 0 20 20" fill="none" xmlns="http://www.w3.org/2000/svg">
<path d="M14.5963 10.4629C14.5885 9.13087 15.192 8.12693 16.4108 7.38673C15.7291 6.41016 14.6979 5.87305 13.3385 5.76953C12.0514 5.66797 10.6432 6.51953 10.1276 6.51953C9.58262 6.51953 8.33656 5.80469 7.35609 5.80469C5.33264 5.83594 3.18225 7.418 3.18225 10.6367C3.18225 11.5879 3.35608 12.5703 3.70373 13.582C4.16858 14.9141 5.84436 18.1777 7.59242 18.125C8.50649 18.1035 9.15296 17.4765 10.3424 17.4765C11.4967 17.4765 12.0944 18.125 13.1139 18.125C14.8776 18.0996 16.3932 15.1328 16.8346 13.7969C14.4694 12.6817 14.5963 10.5313 14.5963 10.4629ZM12.5436 4.50586C13.5338 3.33008 13.444 2.25977 13.4147 1.875C12.5397 1.92578 11.528 2.4707 10.9518 3.14063C10.317 3.85937 9.94396 4.74805 10.024 5.75C10.9694 5.82227 11.8326 5.33594 12.5436 4.50586Z" fill="#1E293B"/>
</svg>
