<svg width="43" height="32" viewBox="0 0 43 32" fill="none" xmlns="http://www.w3.org/2000/svg">
<g clip-path="url(#clip0_13_79)">
<path d="M6.94796 6.41508C5.31056 7.89751 4.71408 11.2565 7.66607 13.2202L19.4442 21.3002L13.7326 8.21739C12.5362 5.13031 9.26253 4.45723 6.94913 6.41508" fill="#323334"/>
<path d="M17.0873 0.0545484C15.1727 0.0937288 12.2979 2.37321 13.5785 5.85443L19.4849 19.7828L21.5602 5.13281C22.041 1.49253 19.2861 -0.188721 17.089 0.0545484" fill="#323334"/>
<path d="M22.4774 4.57359H23.5949C23.5949 4.57359 24.1914 4.57359 24.2727 4.85487C23.8329 5.21393 22.6353 5.25896 22.7956 7.17588L24.6733 19.7808L30.5386 5.81567C31.7381 2.69702 29.2194 0.09298 26.9867 0.01345C26.8826 0.00643259 26.7779 0 26.6691 0C24.6639 0 22.3663 1.45728 22.4786 4.57359" fill="#323334"/>
<path d="M30.301 8.33624L24.7532 21.26L36.5266 13.1373C39.2406 11.2122 38.8032 8.13507 37.2868 6.61346C36.65 5.89769 35.4804 5.34448 34.2419 5.34448C32.7799 5.34448 31.2121 6.12049 30.3039 8.33449" fill="#323334"/>
<path d="M35.2099 14.9776L24.1533 22.7014H37.7671C40.5601 22.7014 42.3554 19.8213 41.5571 17.1787C41.0221 15.5173 39.4431 14.2138 37.6063 14.2115C36.8338 14.2115 36.0145 14.4454 35.2087 14.9782" fill="#323334"/>
<path d="M6.62848 22.7015H20.0417L8.98225 14.9776C6.42732 13.3367 3.55427 14.2969 2.51687 17.0243C1.63969 20.1431 3.83322 22.7044 6.62848 22.7044" fill="#323334"/>
<path d="M1.59253 28.2907C1.59253 29.6059 2.66795 32.0001 6.77313 32.0001C10.5591 32.0001 11.7543 30.2632 11.7543 29.4668H8.82397C8.82397 29.4668 8.68479 30.5194 7.0316 30.5194C5.37842 30.5194 4.92989 29.1381 4.92989 28.3399C4.92989 27.5417 5.37725 26.2382 7.0316 26.2382C8.68597 26.2382 8.82397 27.1545 8.82397 27.1545H11.7543C11.7543 26.3569 10.8771 24.6447 6.77313 24.6447C2.66912 24.6447 1.59253 27.1943 1.59253 28.2907Z" fill="#323334"/>
<path d="M32.3247 28.2907C32.3247 29.6059 33.4007 32.0001 37.5053 32.0001C41.2906 32.0001 42.4865 30.2632 42.4865 29.4668H39.5585C39.5585 29.4668 39.4187 30.5194 37.765 30.5194C36.1112 30.5194 35.6597 29.1387 35.6597 28.3405C35.6597 27.5422 36.1077 26.2387 37.765 26.2387C39.4222 26.2387 39.5585 27.1545 39.5585 27.1545H42.4871C42.4871 26.3569 41.6099 24.6447 37.5059 24.6447C33.4019 24.6447 32.3253 27.1943 32.3253 28.2907" fill="#323334"/>
<path d="M19.7647 24.7675V29.2199L16.3543 24.7675H12.5176V31.8199H15.1479V27.3159L18.4987 31.8199H22.3951V24.7675H19.7647Z" fill="#323334"/>
<path d="M28.1918 30.1351V30.1444H26V28.8491H28.1918V28.8532C28.6596 28.8532 29.0374 29.1409 29.0374 29.4964C29.0374 29.852 28.6596 30.1351 28.1918 30.1351ZM26.0199 26.1392H28.1315V26.1421C28.4895 26.1421 28.7795 26.3761 28.7795 26.6685C28.7795 26.9609 28.4871 27.1947 28.1315 27.1947V27.1977H26.0199V26.1392ZM30.3438 28.069C30.8227 28.069 31.8239 27.5134 31.8239 26.4362C31.8239 24.903 28.9684 24.7661 28.5303 24.7661H23.2673V31.8192H28.5303C31.0607 31.8192 32.0771 31.0198 32.0771 29.6848C32.0771 28.3497 30.3438 28.0702 30.3438 28.0702V28.069Z" fill="#323334"/>
</g>
<defs>
<clipPath id="clip0_13_79">
<rect width="42.0571" height="32" fill="white" transform="translate(0.942871)"/>
</clipPath>
</defs>
</svg>
