<svg width="30" height="30" viewBox="0 0 30 30" fill="none" xmlns="http://www.w3.org/2000/svg">
<path d="M11.0001 10.9998H11.0134M19.0001 18.9998H19.0134M20.3334 9.6665L9.66675 20.3332M28.3334 14.9998C28.3334 22.3636 22.3639 28.3332 15.0001 28.3332C7.63628 28.3332 1.66675 22.3636 1.66675 14.9998C1.66675 7.63604 7.63628 1.6665 15.0001 1.6665C22.3639 1.6665 28.3334 7.63604 28.3334 14.9998ZM11.6667 10.9998C11.6667 11.368 11.3683 11.6665 11.0001 11.6665C10.6319 11.6665 10.3334 11.368 10.3334 10.9998C10.3334 10.6316 10.6319 10.3332 11.0001 10.3332C11.3683 10.3332 11.6667 10.6316 11.6667 10.9998ZM19.6667 18.9998C19.6667 19.368 19.3683 19.6665 19.0001 19.6665C18.6319 19.6665 18.3334 19.368 18.3334 18.9998C18.3334 18.6316 18.6319 18.3332 19.0001 18.3332C19.3683 18.3332 19.6667 18.6316 19.6667 18.9998Z" stroke="#3A3A3A" stroke-width="3" stroke-linecap="round" stroke-linejoin="round"/>
</svg>
