<svg width="71" height="20" viewBox="0 0 71 20" fill="none" xmlns="http://www.w3.org/2000/svg">
<g clip-path="url(#clip0_13_60)">
<path d="M63.4437 19.1162C62.5482 19.0202 61.1237 18.7082 60.6493 18.5042L60.4177 18.4037L60.386 17.256C60.3684 16.6243 60.3484 15.7802 60.3413 15.3797L60.3282 14.6516L60.4674 14.5852C60.5765 14.5412 60.6921 14.5156 60.8096 14.5094L61.0136 14.4998L61.1869 14.927C61.8639 16.5932 62.6583 17.4896 63.6949 17.765C64.0909 17.869 64.8326 17.87 65.1255 17.765C65.9456 17.4756 66.3958 16.8544 66.3994 16.0063C66.4044 15.0013 65.8516 14.5184 63.7648 13.7034C62.4719 13.1983 62.0211 12.9381 61.484 12.3888C60.9046 11.7959 60.6267 11.1205 60.5745 10.1809C60.5111 9.04475 60.8669 8.087 61.6548 7.27096C62.4427 6.45491 63.4769 6.00467 64.8788 5.87654C66.1134 5.76398 68.0083 6.02728 68.9992 6.44636L69.1806 6.52325L69.2128 7.54632C69.2309 8.10911 69.2489 8.86335 69.254 9.22264L69.262 9.87589L69.0188 9.96632C68.6344 10.109 68.6093 10.0909 68.3953 9.52413C67.7952 7.93525 67.0988 7.18302 66.0129 6.95338C65.3512 6.81369 64.7984 6.96393 64.3964 7.39356C64.0833 7.72873 63.9607 8.0262 63.9311 8.52568C63.8989 9.06736 63.9959 9.35982 64.3266 9.72165C64.7346 10.1678 65.4023 10.5532 66.733 11.109C68.3625 11.7899 69.1404 12.3682 69.563 13.2134C69.8374 13.7622 69.9148 14.2004 69.8876 15.044C69.867 15.6771 69.847 15.8073 69.7027 16.2324C69.2329 17.6182 68.1731 18.5308 66.537 18.9584C65.9843 19.1037 65.9028 19.1092 64.7999 19.1227C64.1648 19.1317 63.5542 19.1277 63.4437 19.1162Z" fill="#323334"/>
<path d="M0.0668315 18.8141C0.0251246 18.796 0.00401994 18.6719 0.00401994 18.4403C0.00401994 18.0236 -0.0226122 18.0423 0.782883 17.893C1.40045 17.7784 1.62154 17.6609 1.8944 17.3036C2.42302 16.6102 2.53759 15.275 2.53859 9.77725C2.53859 4.61416 2.4381 3.52827 1.89339 2.73031C1.65069 2.37857 1.24015 2.1841 0.556762 2.1022L0.0291446 2.03888L0.0145722 1.62684L0 1.2153L0.16532 1.18565C0.256271 1.16957 3.45061 1.16254 7.26353 1.17058L14.1979 1.18465L14.2306 1.38565C14.2487 1.49619 14.2778 2.63032 14.2959 3.90564L14.3286 6.22414L13.9693 6.33419C13.4311 6.498 13.4341 6.50001 13.1919 5.85933C12.5975 4.28603 11.9156 3.37954 10.9809 2.92176C10.3373 2.6062 10.0398 2.57002 8.22279 2.57002H6.64395L6.61682 2.83383C6.56657 3.32878 6.48517 6.51106 6.48567 8.0095V9.49989L6.95048 9.49738C7.20625 9.49738 7.71025 9.47678 8.07053 9.45567C8.61272 9.42301 8.77402 9.39437 9.00014 9.28935C9.55739 9.03157 9.93627 8.46376 10.1684 7.53967L10.288 7.06281L10.6986 7.04823L11.1086 7.03366V13.0726L10.698 13.0581L10.288 13.0434L10.1714 12.5661C9.95291 11.6692 9.53179 11.027 9.01119 10.7969C8.77101 10.6908 8.17606 10.63 7.02585 10.5958L6.48567 10.5793V11.7109C6.48567 12.947 6.5535 14.6188 6.64043 15.5263C6.76204 16.7915 7.08514 17.4905 7.66602 17.7433C7.77657 17.7935 8.12732 17.8699 8.44539 17.9177C8.76347 17.9654 9.06295 18.0246 9.1112 18.0498C9.23382 18.1131 9.24086 18.7683 9.11974 18.8146C9.02476 18.8512 0.156778 18.8488 0.066329 18.8121L0.0668315 18.8141Z" fill="#323334"/>
<path d="M24.8383 18.8047C24.7926 18.7755 24.7775 18.6594 24.788 18.4157L24.8031 18.0685L24.979 18.0313C25.0755 18.0107 25.2835 17.9695 25.4408 17.9403C25.9272 17.8494 26.2066 17.5851 26.3643 17.068C26.4925 16.6464 26.5488 15.2982 26.5518 12.5913C26.5553 9.2804 26.4865 8.49852 26.1498 8.05532C25.9684 7.81513 25.8372 7.74678 25.3961 7.66237C25.179 7.62066 24.9504 7.57594 24.888 7.56187C24.7876 7.54077 24.775 7.5081 24.775 7.26038C24.775 7.01264 24.79 6.97747 24.888 6.93727C25.0388 6.87546 30.0165 5.88204 30.1752 5.88204H30.3014L30.2773 6.62321C30.2638 7.03073 30.2421 7.62468 30.2296 7.94226L30.2064 8.52012L30.3868 8.19501C30.9642 7.15384 31.6114 6.50764 32.4722 6.11319C32.945 5.89661 33.26 5.83179 33.844 5.83179C34.5364 5.83179 35.2289 6.05791 35.2289 6.28403C35.2289 6.43478 34.0088 9.65981 33.9415 9.68541C33.9088 9.69793 33.6707 9.60705 33.4124 9.4844C32.8731 9.22612 32.3682 9.0995 31.8772 9.10101C31.2662 9.10101 30.5838 9.32713 30.3145 9.61601C30.1989 9.73972 30.1984 9.74721 30.1698 11.5933C30.1416 13.4219 30.2024 15.652 30.3054 16.5489C30.3928 17.3127 30.5958 17.6891 31.0155 17.8645C31.1556 17.9217 32.041 18.0423 32.3299 18.0423C32.3521 18.0423 32.3631 18.2177 32.3551 18.4318L32.3406 18.8212L28.6221 18.8333C26.5769 18.8398 24.874 18.8262 24.8383 18.8037V18.8047Z" fill="#323334"/>
<path d="M24.7802 11.4365C24.5174 9.20642 23.5742 7.57433 22.0114 6.65576C20.2773 5.6352 17.6422 5.57591 15.77 6.51608C14.4198 7.19444 13.3143 8.50192 12.8224 10.0024C12.3164 11.552 12.3164 13.5857 12.8224 15.1675C13.147 16.1805 13.5872 16.9201 14.2661 17.5925C15.0796 18.3965 16.1454 18.9141 17.3639 19.0919C17.8001 19.1553 19.1764 19.1568 19.6252 19.0919C19.9032 19.0495 20.1786 18.9906 20.4497 18.9156C22.6582 18.2759 24.1681 16.5785 24.6837 14.149C24.8083 13.5555 24.8606 12.1173 24.7802 11.4365ZM20.2161 17.1518C19.9824 17.5996 19.5432 18.0111 19.1875 18.1171C17.8141 18.5246 16.8317 17.2167 16.4498 14.4745C16.3268 13.5887 16.3272 11.1751 16.4498 10.1621C16.7187 7.95823 17.3991 6.83868 18.4714 6.83717C18.9542 6.83717 19.2252 6.95475 19.6005 7.33514C20.4999 8.23962 20.9265 9.97122 20.9195 12.6907C20.9155 14.8615 20.701 16.2278 20.2161 17.1518Z" fill="#323334"/>
<path d="M47.2986 10.3803C46.7961 8.08589 45.3655 6.50152 43.4293 6.10104C43.1329 6.03974 42.8656 6.02717 42.2887 6.04727C41.4219 6.07742 40.825 6.20757 40.1782 6.50655C39.9632 6.60705 39.7762 6.68695 39.7617 6.68695C39.7471 6.68695 39.7491 5.37544 39.7662 3.77249C39.7903 1.51379 39.7838 0.858033 39.7371 0.858033C39.5732 0.857028 34.4413 1.83338 34.385 1.87809C34.3433 1.91125 34.3252 2.0198 34.3348 2.18411C34.3513 2.46953 34.3177 2.44692 34.9433 2.58611C35.1317 2.62831 35.3518 2.71022 35.4332 2.768C35.6417 2.91875 35.8156 3.23834 35.9357 3.70014C36.0307 4.06394 36.0433 4.32423 36.0864 6.78594C36.1311 9.2984 36.1221 11.8827 36.0532 16.6157L36.0246 18.582L36.3924 18.6653C36.9246 18.7865 38.4481 19.0402 38.9466 19.0905C39.6777 19.1648 41.3822 19.1543 41.9249 19.0728C44.2816 18.7176 46.0579 17.3509 46.886 15.254C47.1307 14.5934 47.2993 13.907 47.3885 13.2083C47.4774 12.4646 47.4292 10.9788 47.2986 10.3803ZM43.4796 13.7469C43.254 15.5022 42.6802 16.9182 41.9174 17.6046C41.6128 17.8784 41.3289 18.0237 40.9626 18.093C40.6978 18.1433 40.6184 18.1433 40.1395 18.1066C39.9386 18.091 39.8913 18.0679 39.8501 17.9599C39.7858 17.791 39.7094 11.9013 39.7406 9.54864L39.7651 7.71203L40.0983 7.61404C40.3549 7.54419 40.62 7.5112 40.8858 7.51606C41.3108 7.51606 41.3662 7.52862 41.7244 7.7055C42.5882 8.13262 43.1816 9.19338 43.456 10.8069C43.5565 11.4034 43.569 13.0324 43.4771 13.7469H43.4796Z" fill="#323334"/>
<path d="M59.6015 10.9332C59.3694 8.67498 58.4554 7.12027 56.9016 6.34191C55.5212 5.64998 53.3892 5.70023 51.8299 6.46C50.3526 7.18057 49.3355 8.38203 48.7682 10.078C48.4723 10.9614 48.3793 11.6723 48.4089 12.8175C48.428 13.5417 48.4592 13.9155 48.5361 14.2501C49.1185 16.85 50.9014 18.6178 53.3941 19.0675C53.9429 19.168 55.1891 19.168 55.7439 19.0715C56.5358 18.9328 57.4493 18.5806 58.0252 18.1917C58.7286 17.7168 59.4493 17.0028 59.4493 16.7812C59.4493 16.646 59.2075 16.335 59.1025 16.335C59.0568 16.335 58.8613 16.4355 58.6688 16.5616C57.9809 17.0058 57.3237 17.1887 56.4076 17.1887C55.1464 17.1887 54.3475 16.8741 53.5435 16.0631C53.1877 15.7038 53.041 15.5104 52.857 15.1541C52.4523 14.3716 52.2336 13.4714 52.2007 12.4537L52.1867 12.0141L55.9051 12.0015L59.6236 11.9884L59.6402 11.7371C59.6437 11.4686 59.6307 11.2002 59.6015 10.9332ZM54.973 10.8769C54.4921 10.8935 53.6746 10.9141 53.1565 10.9226L52.2144 10.9377V10.7342C52.2261 10.5153 52.2498 10.2972 52.2852 10.081C52.5993 8.05742 53.354 6.84289 54.2987 6.84189C55.168 6.84189 55.7056 8.03731 55.8147 10.2272L55.8464 10.8483L54.973 10.8769Z" fill="#323334"/>
</g>
<defs>
<clipPath id="clip0_13_60">
<rect width="70.3999" height="19.2" fill="white" transform="translate(0 0.400024)"/>
</clipPath>
</defs>
</svg>
