<svg width="18" height="18" viewBox="0 0 18 18" fill="none" xmlns="http://www.w3.org/2000/svg">
<path fill-rule="evenodd" clip-rule="evenodd" d="M2.33119e-07 1.50382C2.33119e-07 1.10498 0.15844 0.722482 0.44046 0.440462C0.72248 0.158442 1.10498 1.97039e-06 1.50382 1.97039e-06H16.4945C16.6922 -0.00031803 16.888 0.038342 17.0707 0.113782C17.2533 0.189222 17.4194 0.299962 17.5592 0.439642C17.699 0.579332 17.81 0.745222 17.8856 0.927832C17.9612 1.11044 18.0001 1.30617 18 1.50382V16.4945C18.0002 16.6922 17.9614 16.888 17.8859 17.0707C17.8104 17.2534 17.6996 17.4194 17.5598 17.5593C17.4201 17.6991 17.2541 17.81 17.0715 17.8856C16.8888 17.9612 16.6931 18.0001 16.4954 18H1.50382C1.30627 18 1.11065 17.9611 0.92814 17.8855C0.74564 17.8098 0.579821 17.699 0.440171 17.5593C0.300521 17.4195 0.18976 17.2536 0.11424 17.0711C0.0387099 16.8886 -0.000109767 16.6929 2.33119e-07 16.4954V1.50382ZM7.1247 6.8629H9.5621V8.0869C9.9139 7.3833 10.8139 6.75 12.1664 6.75C14.7592 6.75 15.3736 8.1515 15.3736 10.7231V15.4865H12.7497V11.3089C12.7497 9.8444 12.3979 9.018 11.5045 9.018C10.2649 9.018 9.7495 9.909 9.7495 11.3089V15.4865H7.1247V6.8629ZM2.6247 15.3745H5.2495V6.75H2.6247V15.3745ZM5.625 3.9371C5.6299 4.1618 5.59 4.3853 5.5074 4.5943C5.4248 4.8034 5.3013 4.9939 5.1441 5.1546C4.9869 5.3153 4.7992 5.4429 4.592 5.5301C4.3848 5.6173 4.1623 5.6622 3.9375 5.6622C3.7127 5.6622 3.4902 5.6173 3.283 5.5301C3.0758 5.4429 2.8881 5.3153 2.7309 5.1546C2.5737 4.9939 2.4502 4.8034 2.3676 4.5943C2.285 4.3853 2.2451 4.1618 2.25 3.9371C2.2597 3.496 2.4418 3.0762 2.7572 2.7677C3.0726 2.4591 3.4963 2.2863 3.9375 2.2863C4.3787 2.2863 4.8024 2.4591 5.1178 2.7677C5.4332 3.0762 5.6153 3.496 5.625 3.9371Z" fill="white"/>
</svg>
