<svg width="18" height="18" viewBox="0 0 18 18" fill="none" xmlns="http://www.w3.org/2000/svg">
<path fill-rule="evenodd" clip-rule="evenodd" d="M5.5988 0.7995C6.4785 0.759 6.759 0.75 9 0.75C11.241 0.75 11.5215 0.75975 12.4005 0.7995C13.2795 0.83925 13.8795 0.9795 14.4045 1.18275C14.9542 1.3905 15.453 1.71525 15.8655 2.1352C16.2855 2.547 16.6095 3.045 16.8165 3.5955C17.0205 4.1205 17.16 4.7205 17.2005 5.598C17.241 6.4792 17.25 6.7597 17.25 9C17.25 11.241 17.2402 11.5215 17.2005 12.4012C17.1607 13.2787 17.0205 13.8787 16.8165 14.4037C16.6095 14.9543 16.285 15.4531 15.8655 15.8655C15.453 16.2855 14.9542 16.6095 14.4045 16.8165C13.8795 17.0205 13.2795 17.16 12.402 17.2005C11.5215 17.241 11.241 17.25 9 17.25C6.759 17.25 6.4785 17.2402 5.5988 17.2005C4.7213 17.1607 4.1213 17.0205 3.5963 16.8165C3.0457 16.6095 2.5469 16.2849 2.1345 15.8655C1.71478 15.4535 1.38999 14.9549 1.18275 14.4045C0.9795 13.8795 0.84 13.2795 0.7995 12.402C0.759 11.5207 0.75 11.2402 0.75 9C0.75 6.759 0.75975 6.4785 0.7995 5.5995C0.83925 4.7205 0.9795 4.1205 1.18275 3.5955C1.39029 3.0451 1.71534 2.5465 2.1352 2.1345C2.547 1.71488 3.0454 1.39008 3.5955 1.18275C4.1205 0.9795 4.7213 0.84 5.5988 0.7995ZM12.3337 2.2845C11.4637 2.2448 11.2028 2.2365 9 2.2365C6.7972 2.2365 6.5362 2.2448 5.6662 2.2845C4.8615 2.3212 4.425 2.4555 4.134 2.5687C3.7492 2.7188 3.474 2.8965 3.1853 3.1853C2.9115 3.4515 2.7009 3.7757 2.5687 4.134C2.4555 4.425 2.3212 4.8615 2.2845 5.6662C2.2448 6.5362 2.2365 6.7972 2.2365 9C2.2365 11.2028 2.2448 11.4637 2.2845 12.3337C2.3212 13.1385 2.4555 13.575 2.5687 13.866C2.7007 14.2238 2.9115 14.5485 3.1853 14.8148C3.4515 15.0885 3.7763 15.2993 4.134 15.4313C4.425 15.5445 4.8615 15.6788 5.6662 15.7155C6.5362 15.7552 6.7965 15.7635 9 15.7635C11.2035 15.7635 11.4637 15.7552 12.3337 15.7155C13.1385 15.6788 13.575 15.5445 13.866 15.4313C14.2508 15.2813 14.526 15.1035 14.8148 14.8148C15.0885 14.5485 15.2993 14.2238 15.4313 13.866C15.5445 13.575 15.6788 13.1385 15.7155 12.3337C15.7552 11.4637 15.7635 11.2028 15.7635 9C15.7635 6.7972 15.7552 6.5362 15.7155 5.6662C15.6788 4.8615 15.5445 4.425 15.4313 4.134C15.2813 3.7492 15.1035 3.474 14.8148 3.1853C14.5484 2.9116 14.2243 2.7009 13.866 2.5687C13.575 2.4555 13.1385 2.3212 12.3337 2.2845ZM7.9462 11.5433C8.5347 11.7882 9.19 11.8213 9.8002 11.6368C10.4104 11.4523 10.9375 11.0617 11.2917 10.5317C11.6459 10.0017 11.805 9.3652 11.742 8.7308C11.679 8.0965 11.3978 7.5037 10.9462 7.0538C10.6584 6.7661 10.3104 6.5459 9.9272 6.4089C9.5441 6.2719 9.1353 6.2215 8.7304 6.2615C8.3254 6.3014 7.9344 6.4306 7.5854 6.6398C7.2363 6.8491 6.9381 7.1331 6.712 7.4714C6.4859 7.8097 6.3376 8.194 6.2779 8.5965C6.2181 8.999 6.2484 9.4097 6.3664 9.7991C6.4844 10.1886 6.6874 10.547 6.9605 10.8485C7.2337 11.1501 7.5704 11.3874 7.9462 11.5433ZM6.0015 6.0015C6.3953 5.6077 6.8627 5.2954 7.3772 5.0823C7.8917 4.8692 8.4431 4.7595 9 4.7595C9.5569 4.7595 10.1083 4.8692 10.6228 5.0823C11.1373 5.2954 11.6047 5.6077 11.9985 6.0015C12.3923 6.3953 12.7046 6.8627 12.9177 7.3772C13.1308 7.8917 13.2405 8.4431 13.2405 9C13.2405 9.5569 13.1308 10.1083 12.9177 10.6228C12.7046 11.1373 12.3923 11.6047 11.9985 11.9985C11.2032 12.7938 10.1247 13.2405 9 13.2405C7.8753 13.2405 6.7968 12.7938 6.0015 11.9985C5.2062 11.2032 4.7595 10.1247 4.7595 9C4.7595 7.8753 5.2062 6.7968 6.0015 6.0015ZM14.181 5.391C14.2786 5.299 14.3567 5.1883 14.4107 5.0655C14.4648 4.9427 14.4936 4.8103 14.4956 4.6762C14.4975 4.5421 14.4725 4.4089 14.4221 4.2846C14.3717 4.1603 14.2968 4.0474 14.202 3.9525C14.1071 3.8577 13.9942 3.7828 13.8699 3.7324C13.7456 3.682 13.6124 3.657 13.4783 3.6589C13.3442 3.6609 13.2118 3.6897 13.089 3.7438C12.9662 3.7978 12.8555 3.8759 12.7635 3.9735C12.5845 4.1633 12.4865 4.4153 12.4903 4.6762C12.4941 4.9371 12.5994 5.1862 12.7839 5.3706C12.9683 5.5551 13.2174 5.6604 13.4783 5.6642C13.7392 5.668 13.9912 5.57 14.181 5.391Z" fill="#F8FAFC"/>
</svg>
