<svg width="18" height="15" viewBox="0 0 18 15" fill="none" xmlns="http://www.w3.org/2000/svg">
<path d="M18 1.73571C17.3381 2.02901 16.627 2.22721 15.8794 2.31681C16.6508 1.85531 17.2278 1.12891 17.503 0.273115C16.7783 0.703615 15.9851 1.00661 15.158 1.16891C14.6018 0.575014 13.8651 0.181415 13.0623 0.0491146C12.2594 -0.0831154 11.4354 0.0534145 10.7181 0.437415C10.0007 0.821514 9.4303 1.43161 9.0953 2.17312C8.7602 2.91462 8.6794 3.74591 8.8652 4.53812C7.3968 4.46431 5.9603 4.08271 4.649 3.41781C3.3376 2.75301 2.1807 1.81991 1.25332 0.679015C0.93623 1.22601 0.7539 1.86021 0.7539 2.53561C0.75354 3.14361 0.90328 3.74231 1.18981 4.27861C1.47634 4.81491 1.89082 5.27222 2.3965 5.60992C1.81005 5.59122 1.23658 5.43271 0.72377 5.14772V5.19521C0.72371 6.04801 1.0187 6.87461 1.55868 7.53461C2.0987 8.19471 2.8504 8.64761 3.6863 8.81651C3.1423 8.96371 2.5719 8.98541 2.0183 8.87991C2.2542 9.61371 2.7136 10.2553 3.3322 10.7151C3.9508 11.1748 4.6977 11.4295 5.4683 11.4436C4.1602 12.4706 2.5446 13.0276 0.88153 13.0252C0.58693 13.0252 0.29258 13.008 0 12.9736C1.68813 14.059 3.6532 14.6351 5.6602 14.6328C12.454 14.6328 16.168 9.00601 16.168 4.12581C16.168 3.96731 16.164 3.80721 16.1569 3.64861C16.8793 3.12621 17.5029 2.47921 17.9984 1.73811L18 1.73571Z" fill="#F8FAFC"/>
</svg>
