<svg width="64" height="64" viewBox="0 0 64 64" fill="none" xmlns="http://www.w3.org/2000/svg">
<circle opacity="0.1" cx="32" cy="32" r="32" fill="#35977F"/>
<path d="M29 27H24.6C24.0399 27 23.7599 27 23.546 27.109C23.3578 27.2049 23.2049 27.3578 23.109 27.546C23 27.7599 23 28.0399 23 28.6V39.4C23 39.9601 23 40.2401 23.109 40.454C23.2049 40.6422 23.3578 40.7951 23.546 40.891C23.7599 41 24.0399 41 24.6 41H29M29 41H35M29 41L29 24.6C29 24.0399 29 23.7599 29.109 23.546C29.2049 23.3578 29.3578 23.2049 29.546 23.109C29.7599 23 30.0399 23 30.6 23L33.4 23C33.9601 23 34.2401 23 34.454 23.109C34.6422 23.2049 34.7951 23.3578 34.891 23.546C35 23.7599 35 24.0399 35 24.6V41M35 31H39.4C39.9601 31 40.2401 31 40.454 31.109C40.6422 31.2049 40.7951 31.3578 40.891 31.546C41 31.7599 41 32.0399 41 32.6V39.4C41 39.9601 41 40.2401 40.891 40.454C40.7951 40.6422 40.6422 40.7951 40.454 40.891C40.2401 41 39.9601 41 39.4 41H35" stroke="#35977F" stroke-width="2" stroke-linecap="round" stroke-linejoin="round"/>
</svg>
