<svg width="64" height="64" viewBox="0 0 64 64" fill="none" xmlns="http://www.w3.org/2000/svg">
<circle cx="32" cy="32" r="32" fill="white"/>
<path d="M27.5 31H24.6C24.0399 31 23.7599 31 23.546 31.109C23.3578 31.2049 23.2049 31.3578 23.109 31.546C23 31.7599 23 32.0399 23 32.6V41M36.5 31H39.4C39.9601 31 40.2401 31 40.454 31.109C40.6422 31.2049 40.7951 31.3578 40.891 31.546C41 31.7599 41 32.0399 41 32.6V41M36.5 41V26.2C36.5 25.0799 36.5 24.5198 36.282 24.092C36.0903 23.7157 35.7843 23.4097 35.408 23.218C34.9802 23 34.4201 23 33.3 23H30.7C29.5799 23 29.0198 23 28.592 23.218C28.2157 23.4097 27.9097 23.7157 27.718 24.092C27.5 24.5198 27.5 25.0799 27.5 26.2V41M42 41H22M31 27H33M31 31H33M31 35H33" stroke="#55ADFF" stroke-width="2" stroke-linecap="round" stroke-linejoin="round"/>
</svg>
