<svg width="130" height="37" viewBox="0 0 130 37" fill="none" xmlns="http://www.w3.org/2000/svg">
<path d="M21.82 17.7408L29.5851 25.5059L21.82 33.271C19.7319 35.3591 16.3465 35.3591 14.2584 33.271L6.49328 25.5059L14.2584 17.7408C16.3465 15.6527 19.7319 15.6527 21.82 17.7408ZM32.4136 22.6775L24.6485 14.9124C20.9983 11.2622 15.0801 11.2622 11.43 14.9124L3.66485 22.6775L3.56607 22.5787C1.47798 20.4906 1.47798 17.1052 3.56607 15.0171L14.2584 4.32476C16.3465 2.23667 19.7319 2.23668 21.82 4.32477L32.5123 15.0171C34.6004 17.1052 34.6004 20.4906 32.5123 22.5787L32.4136 22.6775Z" stroke="#35977F" stroke-width="4"/>
<path d="M52.5669 31.2089V26.6927L55.0118 24.146L59.3921 31.2089H64.146L57.8981 21.0899L64.2818 14.4345H59.0865L52.5669 21.4635V5.9455H48.4583V31.2089H52.5669Z" fill="#3A3A3A"/>
<path d="M73.4033 31.6503C77.7836 31.6503 80.8397 29.4432 81.5528 25.7759H77.7157C77.2403 27.3718 75.7463 28.2547 73.4712 28.2547C70.7208 28.2547 69.1588 26.7606 68.8532 23.8064L81.4849 23.7725V22.5161C81.4849 17.2869 78.293 13.9252 73.2675 13.9252C68.3438 13.9252 64.9143 17.5585 64.9143 22.8217C64.9143 28.017 68.4117 31.6503 73.4033 31.6503ZM73.3014 17.3208C75.7802 17.3208 77.3762 18.8488 77.3762 21.1579H68.955C69.3625 18.6451 70.8566 17.3208 73.3014 17.3208Z" fill="#3A3A3A"/>
<path d="M88.6374 31.2089L88.9091 28.5943C89.8938 30.5298 92.033 31.6503 94.5458 31.6503C99.3676 31.6503 102.525 28.0849 102.525 22.9236C102.525 17.6264 99.6052 13.8912 94.8174 13.8912C92.2707 13.8912 90.0296 15.0118 88.943 16.8794V5.9455H84.8004V31.2089H88.6374ZM88.977 22.7538C88.977 19.7317 90.8446 17.6264 93.6969 17.6264C96.6171 17.6264 98.3489 19.7657 98.3489 22.7538C98.3489 25.7419 96.6171 27.8472 93.6969 27.8472C90.8446 27.8472 88.977 25.7759 88.977 22.7538Z" fill="#3A3A3A"/>
<path d="M110.001 31.2089V5.9455H105.892V31.2089H110.001Z" fill="#3A3A3A"/>
<path d="M121.851 31.6503C126.231 31.6503 129.287 29.4432 130 25.7759H126.163C125.688 27.3718 124.193 28.2547 121.918 28.2547C119.168 28.2547 117.606 26.7606 117.3 23.8064L129.932 23.7725V22.5161C129.932 17.2869 126.74 13.9252 121.715 13.9252C116.791 13.9252 113.361 17.5585 113.361 22.8217C113.361 28.017 116.859 31.6503 121.851 31.6503ZM121.749 17.3208C124.227 17.3208 125.823 18.8488 125.823 21.1579H117.402C117.81 18.6451 119.304 17.3208 121.749 17.3208Z" fill="#3A3A3A"/>
</svg>
