<svg width="32" height="34" viewBox="0 0 32 34" fill="none" xmlns="http://www.w3.org/2000/svg">
<path d="M8.70248 15.7835L2.99536 5.57078C2.33912 4.39647 2.01101 3.80932 2.0663 3.32859C2.11455 2.90917 2.33731 2.5295 2.67991 2.28278C3.07258 2 3.74519 2 5.09042 2H8.44265C8.94259 2 9.19257 2 9.41678 2.0722C9.61518 2.13609 9.79809 2.24062 9.95384 2.37914C10.1299 2.53568 10.2567 2.75106 10.5105 3.18181L15.9999 12.5L21.4893 3.18181C21.7431 2.75106 21.87 2.53568 22.046 2.37914C22.2017 2.24062 22.3846 2.13609 22.583 2.0722C22.8073 2 23.0572 2 23.5572 2H26.9094C28.2546 2 28.9272 2 29.3199 2.28278C29.6625 2.5295 29.8853 2.90917 29.9335 3.32859C29.9888 3.80932 29.6607 4.39647 29.0045 5.57078L23.2974 15.7835M13.7499 20L15.9999 18.5V26M14.1249 26H17.8749M22.8942 15.3557C26.7018 19.1633 26.7018 25.3367 22.8942 29.1443C19.0866 32.9519 12.9132 32.9519 9.10562 29.1443C5.29801 25.3367 5.29801 19.1633 9.10562 15.3557C12.9132 11.5481 19.0866 11.5481 22.8942 15.3557Z" stroke="black" stroke-width="3" stroke-linecap="round" stroke-linejoin="round"/>
</svg>
