<svg width="20" height="20" viewBox="0 0 20 20" fill="none" xmlns="http://www.w3.org/2000/svg">
<path d="M3.21037 1.68457C3.03829 1.72915 2.91663 1.8779 2.91663 2.13374C2.91663 2.88457 2.91663 9.965 2.91663 9.965C2.91663 9.965 2.91663 17.6167 2.91663 17.9546C2.91663 18.1404 2.99871 18.265 3.12496 18.3113L11.5337 9.95126L3.21037 1.68457Z" fill="#4DB6AC"/>
<path d="M13.8493 7.65001L10.388 5.65167C10.388 5.65167 4.03594 1.98375 3.6626 1.76834C3.50094 1.67501 3.34177 1.65042 3.21094 1.68459L11.5347 9.95127L13.8493 7.65001Z" fill="#DCE775"/>
<path d="M3.50708 18.2508C3.72875 18.1225 9.8754 14.5737 13.8675 12.2687L11.5337 9.95126L3.125 18.3113C3.22833 18.3491 3.36083 18.335 3.50708 18.2508Z" fill="#D32F2F"/>
<path d="M17.2493 9.61265C16.9177 9.43392 13.8743 7.66432 13.8743 7.66432L13.8489 7.64972L11.5339 9.95099L13.8677 12.2685C15.7143 11.2023 17.1014 10.4018 17.2256 10.3297C17.6189 10.1031 17.581 9.79139 17.2493 9.61265Z" fill="#FBC02D"/>
</svg>
