<svg width="53" height="30" viewBox="0 0 53 30" fill="none" xmlns="http://www.w3.org/2000/svg">
<g clip-path="url(#clip0_13_75)">
<path d="M8.8679 1.3744V1.92233L9.37555 2.0432C10.1813 2.23658 10.278 2.71199 10.5923 4.20267L11.398 8.4088L9.1338 20.6808L6.02352 5.25823C5.66898 3.5661 5.55617 2.3091 6.82929 2.03513L7.41751 1.91427V1.3744H0.0527344V1.92233L0.802104 2.0996C1.55147 2.29299 1.86572 2.64752 2.37336 4.96815L7.36916 28.6176H8.6584L12.0024 10.7536L15.7089 28.6176H16.7323L21.5669 5.70141C22.1148 3.06653 22.3727 2.31716 23.2993 2.07543L24.0487 1.88204V1.3744H18.5855V1.92233L19.3913 2.08348C20.5678 2.31715 20.8497 3.06653 20.2938 6.11235L17.3527 20.6969L14.3713 5.27435C14.049 3.74337 13.8556 2.32522 15.1771 2.05125L16.0393 1.8901V1.34217L8.8679 1.3744ZM43.8707 1.44692V2.0029L44.8537 2.23658C45.7159 2.42997 46.0705 2.74422 46.0705 3.84813V22.9288C46.0705 25.0561 46.0705 27.8441 43.8707 27.8441C42.6137 27.8441 41.6307 26.7482 41.7032 25.9989C41.7838 24.7822 43.911 24.8547 44.0238 22.8886C44.0697 22.642 44.0635 22.3887 44.0056 22.1446C43.9478 21.9007 43.8394 21.6715 43.6877 21.4719C43.5358 21.2723 43.344 21.1066 43.1243 20.9857C42.9047 20.8647 42.6621 20.791 42.4122 20.7694C41.1956 20.6083 39.6968 21.6315 39.6565 23.6783C39.6565 26.3131 41.3486 28.7143 44.2978 28.7143C47.5612 28.7143 49.6964 26.5065 49.6964 22.2681V3.88842C49.6964 2.78451 49.9704 2.42997 50.7521 2.27687L51.6223 1.98679V1.43886L43.8707 1.44692ZM30.6158 1.29382C27.2718 1.29382 25.3862 4.08986 25.3862 7.74002C25.3862 14.5488 34.1612 17.1837 34.1612 23.3237C34.1612 26.2325 32.9364 27.8441 31.1717 27.8441C28.5369 27.8441 26.6513 24.6613 26.1759 19.5849H25.5877V28.5451H26.0631C26.458 27.2558 26.9656 27.1269 27.4007 27.1269C28.1501 27.1269 28.9316 28.6982 31.2121 28.6982C34.7172 28.6982 36.9975 25.6765 36.9975 21.5026C36.9975 13.316 28.2548 11.3096 28.2548 5.45161C28.2548 4.11403 28.6497 2.14795 30.6158 2.14795C33.4521 2.14795 34.6446 5.87868 35.1442 10.4071H35.7324V1.43886H35.2651C35.0636 2.30104 34.7091 2.69587 34.2014 2.69587C33.291 2.69587 32.8316 1.28577 30.656 1.28577L30.6158 1.29382ZM36.9491 9.01314V9.10983V9.02926V9.01314Z" fill="#323334"/>
</g>
<defs>
<clipPath id="clip0_13_75">
<rect width="52.1142" height="28.3428" fill="white" transform="translate(0.0170898 0.828613)"/>
</clipPath>
</defs>
</svg>
